<mxfile host="app.diagrams.net" modified="2024-01-24T09:17:54.389Z" agent="Mozilla/5.0 (Windows NT 10.0; Win64; x64) AppleWebKit/537.36 (KHTML, like Gecko) Chrome/120.0.0.0 Safari/537.36" etag="zVsVus6ySHemA6J86cOT" version="21.6.6" type="github">
  <diagram id="C5RBs43oDa-KdzZeNtuy" name="Page-1">
    <mxGraphModel dx="1290" dy="557" grid="1" gridSize="10" guides="1" tooltips="1" connect="1" arrows="1" fold="1" page="1" pageScale="1" pageWidth="827" pageHeight="1169" math="0" shadow="0">
      <root>
        <mxCell id="WIyWlLk6GJQsqaUBKTNV-0" />
        <mxCell id="WIyWlLk6GJQsqaUBKTNV-1" parent="WIyWlLk6GJQsqaUBKTNV-0" />
        <mxCell id="1GZfDRMCv4n1Jx7n0dT2-0" value="劳动合同签署流程" style="swimlane;childLayout=stackLayout;resizeParent=1;resizeParentMax=0;horizontal=1;startSize=20;horizontalStack=0;html=1;" vertex="1" parent="WIyWlLk6GJQsqaUBKTNV-1">
          <mxGeometry x="20" y="20" width="580" height="660" as="geometry" />
        </mxCell>
        <mxCell id="1GZfDRMCv4n1Jx7n0dT2-1" value="基于模板在线生成签署文件" style="swimlane;startSize=20;horizontal=0;html=1;" vertex="1" parent="1GZfDRMCv4n1Jx7n0dT2-0">
          <mxGeometry y="20" width="580" height="230" as="geometry" />
        </mxCell>
        <mxCell id="1GZfDRMCv4n1Jx7n0dT2-17" value="" style="line;strokeWidth=2;direction=south;html=1;" vertex="1" parent="1GZfDRMCv4n1Jx7n0dT2-1">
          <mxGeometry x="276" width="10" height="230" as="geometry" />
        </mxCell>
        <mxCell id="1GZfDRMCv4n1Jx7n0dT2-21" value="" style="rounded=0;whiteSpace=wrap;html=1;shadow=0;" vertex="1" parent="1GZfDRMCv4n1Jx7n0dT2-1">
          <mxGeometry x="20" width="260" height="30" as="geometry" />
        </mxCell>
        <mxCell id="1GZfDRMCv4n1Jx7n0dT2-24" value="" style="rounded=0;whiteSpace=wrap;html=1;" vertex="1" parent="1GZfDRMCv4n1Jx7n0dT2-1">
          <mxGeometry x="280" width="300" height="30" as="geometry" />
        </mxCell>
        <mxCell id="1GZfDRMCv4n1Jx7n0dT2-2" value="创建劳动合同签署人" style="swimlane;startSize=20;horizontal=0;html=1;" vertex="1" parent="1GZfDRMCv4n1Jx7n0dT2-0">
          <mxGeometry y="250" width="580" height="230" as="geometry" />
        </mxCell>
        <mxCell id="1GZfDRMCv4n1Jx7n0dT2-3" value="创建签署流程" style="swimlane;startSize=20;horizontal=0;html=1;" vertex="1" parent="1GZfDRMCv4n1Jx7n0dT2-0">
          <mxGeometry y="480" width="580" height="180" as="geometry" />
        </mxCell>
      </root>
    </mxGraphModel>
  </diagram>
</mxfile>
